<svg width="1152" height="285" viewBox="0 0 1152 285" fill="none" xmlns="http://www.w3.org/2000/svg">
<path d="M804.667 227.529C867.935 179.628 929.732 110.172 993 102.987C1046.79 97.896 1099.52 136.957 1153 173.797V0L993 0L804.667 0L616.333 0L428 0H239.667L51.3334 0L-0.00268555 0V182C16.609 188.626 33.9154 192.801 51.3334 192.801C114.602 192.801 176.398 137.715 239.667 102.987C302.935 69.4563 364.732 55.086 428 96.9993C491.268 137.715 553.065 234.714 616.333 269.443C679.602 304.171 741.398 276.628 804.667 227.529Z" fill="white" fill-opacity="0.05"/>
</svg>
